<svg width="100" height="100" viewBox="0 0 100 100" fill="none" xmlns="http://www.w3.org/2000/svg">
<g clip-path="url(#clip0_142_9)">
<path d="M0 0H100V100H0V0Z" fill="url(#paint0_linear_142_9)"/>
<path d="M0 0H100V100H0V0Z" fill="black" fill-opacity="0.2"/>
<path d="M26.2936 83.5673L33.9463 78.936C35.4227 81.5536 36.7657 83.7684 39.9871 83.7684C43.075 83.7684 45.0219 82.5605 45.0219 77.8621V45.9097H54.4193V77.9949C54.4193 87.7282 48.7139 92.1586 40.39 92.1586C32.8723 92.1586 28.5085 88.2651 26.2935 83.5665" fill="black"/>
<path d="M59.5239 82.5603L67.1757 78.1299C69.19 81.4195 71.8079 83.8358 76.4393 83.8358C80.3331 83.8358 82.8162 81.889 82.8162 79.2039C82.8162 75.9818 80.2655 74.8406 75.9693 72.9617L73.6206 71.9541C66.8404 69.0682 62.3428 65.4434 62.3428 57.7909C62.3428 50.7426 67.7128 45.3723 76.1039 45.3723C82.0782 45.3723 86.3742 47.4534 89.4617 52.8907L82.1449 57.5893C80.5338 54.7031 78.789 53.5622 76.1041 53.5622C73.3519 53.5622 71.6065 55.3074 71.6065 57.5893C71.6065 60.4087 73.3519 61.5501 77.379 63.2955L79.7282 64.3023C87.7163 67.726 92.2139 71.2161 92.2139 79.0696C92.2139 87.528 85.5685 92.1593 76.6409 92.1593C67.9146 92.1593 62.2757 87.9977 59.5239 82.5603Z" fill="black"/>
</g>
<defs>
<linearGradient id="paint0_linear_142_9" x1="100" y1="50" x2="-7.78172e-07" y2="50" gradientUnits="userSpaceOnUse">
<stop stop-color="#9C2FE4"/>
<stop offset="1" stop-color="#F07B2C"/>
</linearGradient>
<clipPath id="clip0_142_9">
<rect width="100" height="100" fill="white"/>
</clipPath>
</defs>
</svg>
