<svg width="352" height="100" viewBox="0 0 352 100" fill="none" xmlns="http://www.w3.org/2000/svg">
<path fill-rule="evenodd" clip-rule="evenodd" d="M327.301 41.355C326.984 41.4184 326.668 42.1152 326.668 42.4951C326.605 45.0282 326.541 51.7417 326.541 56.3012C326.541 56.4281 326.731 56.6811 326.921 56.6811C327.871 56.7445 330.151 56.8079 332.114 56.8079C334.837 56.8079 336.421 56.4281 337.308 56.0482C339.587 54.9082 340.664 52.4379 340.664 49.7146C340.664 43.5717 336.357 41.2282 329.961 41.2282C329.518 41.1654 328.251 41.1654 327.301 41.355ZM343.641 69.6642C343.641 63.3945 339.017 59.911 330.658 59.911C330.278 59.911 327.618 59.8476 326.984 59.9744C326.794 60.0378 326.541 60.1646 326.541 60.3548C326.541 64.851 326.478 72.0077 326.668 74.7938C326.794 75.9973 327.681 77.7073 328.758 78.214C329.897 78.8474 332.494 78.9736 334.267 78.9736C339.271 78.9736 343.641 76.1875 343.641 69.6642ZM314.382 37.8721C315.015 37.8721 316.915 38.0617 321.791 38.0617C326.414 38.0617 330.088 37.9355 334.584 37.9355C340.094 37.9355 347.694 39.8986 347.694 48.1313C347.694 52.1849 344.844 55.4148 341.107 56.9981C340.917 57.0615 340.917 57.1877 341.107 57.2511C346.427 58.5813 351.114 61.8747 351.114 68.0809C351.114 74.161 347.314 78.0238 341.804 80.4307C338.447 81.8871 334.267 82.3937 330.024 82.3937C326.794 82.3937 318.118 82.0139 313.305 82.1407C312.798 81.9505 313.748 79.6704 314.192 79.2906C315.332 79.2272 316.218 79.1638 317.421 78.784C319.132 78.3408 319.321 77.8341 319.575 75.2376C319.702 73.0209 319.702 65.1674 319.702 59.5946C319.702 51.9313 319.765 46.7382 319.702 44.2051C319.638 42.2421 318.941 41.6086 317.548 41.2282C316.472 41.0386 314.698 40.785 313.242 40.5954C312.925 40.2784 314.001 38.1251 314.382 37.8721ZM277.839 77.2641C279.36 78.467 282.336 78.9736 284.996 78.9736C288.416 78.9736 291.836 78.3408 295.129 75.3639C298.486 72.3241 300.829 67.6377 300.829 60.1646C300.829 53.0079 298.105 47.1815 292.532 43.7619C289.366 41.7982 285.312 40.9752 280.626 40.9752C279.233 40.9752 277.903 41.0386 277.08 41.4184C276.889 41.5452 276.446 42.1152 276.446 42.4317C276.319 43.6985 276.319 53.4511 276.319 59.1514C276.319 65.0412 276.319 73.274 276.446 74.2238C276.446 75.1742 276.889 76.6307 277.839 77.2641ZM263.463 37.8721C264.666 37.8721 269.289 38.0617 271.506 38.0617C275.496 38.0617 278.346 37.8721 285.882 37.8721C292.215 37.8721 297.535 39.5821 301.335 42.8115C305.958 46.8016 308.365 52.3117 308.365 59.0246C308.365 68.5876 303.995 74.0976 299.625 77.2641C295.256 80.4941 289.555 82.3937 281.45 82.3937C277.143 82.3937 269.733 82.2669 263.59 82.2035H263.526C263.21 81.6341 264.033 79.4174 264.54 79.354C266.186 79.1638 266.63 79.1004 267.453 78.784C268.783 78.2774 269.036 77.5805 269.227 75.2376C269.416 70.8677 269.353 65.6112 269.353 59.658C269.353 55.4148 269.416 47.1181 269.289 44.4582C269.1 42.2421 268.15 41.672 266.25 41.2916C265.3 41.102 264.033 40.8484 262.26 40.6588C262.007 40.215 263.147 38.2519 263.463 37.8721Z" fill="url(#paint0_linear_142_18)"/>
<path fill-rule="evenodd" clip-rule="evenodd" d="M327.301 41.355C326.984 41.4184 326.668 42.1152 326.668 42.4951C326.605 45.0282 326.541 51.7417 326.541 56.3012C326.541 56.4281 326.731 56.6811 326.921 56.6811C327.871 56.7445 330.151 56.8079 332.114 56.8079C334.837 56.8079 336.421 56.4281 337.308 56.0482C339.587 54.9082 340.664 52.4379 340.664 49.7146C340.664 43.5717 336.357 41.2282 329.961 41.2282C329.518 41.1654 328.251 41.1654 327.301 41.355ZM343.641 69.6642C343.641 63.3945 339.017 59.911 330.658 59.911C330.278 59.911 327.618 59.8476 326.984 59.9744C326.794 60.0378 326.541 60.1646 326.541 60.3548C326.541 64.851 326.478 72.0077 326.668 74.7938C326.794 75.9973 327.681 77.7073 328.758 78.214C329.897 78.8474 332.494 78.9736 334.267 78.9736C339.271 78.9736 343.641 76.1875 343.641 69.6642ZM314.382 37.8721C315.015 37.8721 316.915 38.0617 321.791 38.0617C326.414 38.0617 330.088 37.9355 334.584 37.9355C340.094 37.9355 347.694 39.8986 347.694 48.1313C347.694 52.1849 344.844 55.4148 341.107 56.9981C340.917 57.0615 340.917 57.1877 341.107 57.2511C346.427 58.5813 351.114 61.8747 351.114 68.0809C351.114 74.161 347.314 78.0238 341.804 80.4307C338.447 81.8871 334.267 82.3937 330.024 82.3937C326.794 82.3937 318.118 82.0139 313.305 82.1407C312.798 81.9505 313.748 79.6704 314.192 79.2906C315.332 79.2272 316.218 79.1638 317.421 78.784C319.132 78.3408 319.321 77.8341 319.575 75.2376C319.702 73.0209 319.702 65.1674 319.702 59.5946C319.702 51.9313 319.765 46.7382 319.702 44.2051C319.638 42.2421 318.941 41.6086 317.548 41.2282C316.472 41.0386 314.698 40.785 313.242 40.5954C312.925 40.2784 314.001 38.1251 314.382 37.8721ZM277.839 77.2641C279.36 78.467 282.336 78.9736 284.996 78.9736C288.416 78.9736 291.836 78.3408 295.129 75.3639C298.486 72.3241 300.829 67.6377 300.829 60.1646C300.829 53.0079 298.105 47.1815 292.532 43.7619C289.366 41.7982 285.312 40.9752 280.626 40.9752C279.233 40.9752 277.903 41.0386 277.08 41.4184C276.889 41.5452 276.446 42.1152 276.446 42.4317C276.319 43.6985 276.319 53.4511 276.319 59.1514C276.319 65.0412 276.319 73.274 276.446 74.2238C276.446 75.1742 276.889 76.6307 277.839 77.2641ZM263.463 37.8721C264.666 37.8721 269.289 38.0617 271.506 38.0617C275.496 38.0617 278.346 37.8721 285.882 37.8721C292.215 37.8721 297.535 39.5821 301.335 42.8115C305.958 46.8016 308.365 52.3117 308.365 59.0246C308.365 68.5876 303.995 74.0976 299.625 77.2641C295.256 80.4941 289.555 82.3937 281.45 82.3937C277.143 82.3937 269.733 82.2669 263.59 82.2035H263.526C263.21 81.6341 264.033 79.4174 264.54 79.354C266.186 79.1638 266.63 79.1004 267.453 78.784C268.783 78.2774 269.036 77.5805 269.227 75.2376C269.416 70.8677 269.353 65.6112 269.353 59.658C269.353 55.4148 269.416 47.1181 269.289 44.4582C269.1 42.2421 268.15 41.672 266.25 41.2916C265.3 41.102 264.033 40.8484 262.26 40.6588C262.007 40.215 263.147 38.2519 263.463 37.8721Z" fill="black" fill-opacity="0.2"/>
<path fill-rule="evenodd" clip-rule="evenodd" d="M186.833 79.7341C185.25 79.5439 184.11 79.2909 182.716 78.6574C182.526 78.5306 182.209 77.8978 182.209 77.6442C182.082 75.4275 182.082 69.0944 182.082 64.8513C182.082 61.4311 181.513 58.4548 180.056 56.3649C178.346 53.958 175.876 52.5649 172.71 52.5649C169.923 52.5649 166.186 54.4652 163.083 57.1251C163.02 57.1879 162.513 57.6318 162.577 56.9349C162.577 56.2381 162.703 54.845 162.767 53.8952C162.83 53.0082 162.324 52.5649 162.324 52.5649C160.297 53.5782 154.597 54.9084 152.507 55.098C150.987 55.4151 150.607 56.8715 152.191 57.3781H152.254C153.963 57.8848 155.104 58.4548 155.99 59.0248C156.623 59.5314 156.56 60.2283 156.56 60.7983C156.623 65.5481 156.623 72.831 156.434 76.8212C156.37 78.4044 155.927 78.9739 154.787 79.2275L154.913 79.1641C154.027 79.3543 153.33 79.5439 152.253 79.6707C151.874 80.0505 151.874 82.0776 152.253 82.5208C152.95 82.5208 156.623 82.3306 159.664 82.3306C163.844 82.3306 165.997 82.5208 167.073 82.5208C167.517 82.0142 167.643 80.1139 167.39 79.6707C166.186 79.6073 165.3 79.4811 164.477 79.2275C163.337 78.9739 163.02 78.4044 162.956 77.0742C162.83 73.7174 162.83 66.6247 162.83 61.8115C162.83 60.4813 163.21 59.8478 163.59 59.468C165.046 58.2018 167.39 57.3147 169.48 57.3147C171.506 57.3147 172.836 57.9482 173.85 58.7718C175.243 59.9113 175.686 61.5579 175.876 62.7614C176.193 65.4847 176.066 70.8679 176.066 75.5543C176.066 78.0874 175.876 78.7208 174.926 79.0373C174.483 79.2275 173.343 79.4811 172.013 79.6073C171.57 80.0505 171.696 82.0142 172.013 82.4574C173.85 82.4574 176.003 82.2672 179.17 82.2672C183.096 82.2672 185.629 82.4574 186.643 82.4574C186.959 82.0776 187.086 80.2407 186.833 79.7341ZM204.376 55.5419C201.019 55.5419 198.929 58.1384 198.929 62.1913C198.929 66.3077 200.765 71.0575 205.959 71.0575C206.845 71.0575 208.492 70.6777 209.252 69.7913C210.455 68.6512 211.279 66.3711 211.279 63.9648C211.279 58.7084 208.682 55.5419 204.376 55.5419ZM203.932 83.534C202.666 83.534 201.779 83.9139 201.209 84.2309C198.549 85.9403 197.346 87.587 197.346 89.5507C197.346 91.387 198.042 92.8434 199.562 94.1103C201.399 95.6935 203.932 96.4538 207.162 96.4538C213.622 96.4538 216.472 92.9702 216.472 89.5507C216.472 87.1438 215.268 85.5605 212.799 84.6741C211.025 83.9139 207.795 83.534 203.932 83.534ZM204.376 100C200.512 100 197.726 99.1765 195.319 97.3402C192.976 95.5667 191.962 92.9068 191.962 91.0706C191.962 90.5639 192.089 89.1703 193.229 87.904C193.926 87.1438 195.445 85.6873 199.056 83.2176C199.182 83.1542 199.245 83.0908 199.245 82.964C199.245 82.8372 199.119 82.7104 198.992 82.6476C196.015 81.5076 195.129 79.6707 194.875 78.6574V78.5306C194.813 78.1508 194.686 77.771 195.256 77.3906C195.699 77.0742 196.332 76.6944 197.029 76.2511C198.105 75.6177 199.245 74.9209 199.942 74.3509C200.069 74.2241 200.069 74.0978 200.069 73.971C200.069 73.8442 199.942 73.7174 199.815 73.6546C195.383 72.1976 193.166 68.9042 193.166 63.9648C193.166 60.7349 194.622 57.8214 197.219 55.9851C198.992 54.5914 203.425 52.8819 206.339 52.8819H206.529C209.505 52.9448 211.152 53.5782 213.495 54.4018C214.762 54.845 215.965 55.0346 217.612 55.0346C220.081 55.0346 221.158 54.275 222.045 53.3886C222.108 53.5148 222.235 53.8318 222.298 54.6548C222.362 55.4785 222.108 56.6813 221.475 57.5683C220.968 58.2646 219.828 58.7718 218.688 58.7718H218.371C217.231 58.645 216.725 58.5182 216.725 58.5182L216.472 58.645C216.408 58.7718 216.472 58.898 216.535 59.0882L216.599 59.215C216.725 59.785 216.978 61.4945 216.978 61.9383C216.978 67.1313 214.888 69.4109 212.672 71.1209C210.518 72.7042 208.049 73.7174 205.262 73.971C205.199 73.971 204.946 73.971 204.376 74.0344C204.059 74.0344 203.615 74.0978 203.552 74.0978H203.489C202.982 74.2241 201.716 74.8575 201.716 75.9341C201.716 76.884 202.286 78.024 205.008 78.2142C205.578 78.2776 206.148 78.2776 206.782 78.341C210.392 78.594 214.888 78.911 216.978 79.6073C219.891 80.6839 221.728 83.2804 221.728 86.3842C221.728 91.0706 218.371 95.4405 212.799 98.1633C210.075 99.3667 207.352 100 204.376 100ZM240.474 55.8583C239.144 55.8583 237.941 56.1747 237.054 56.8081C234.585 58.328 233.318 61.3683 233.318 65.8011C233.318 74.0978 237.497 79.9243 243.451 79.9243C245.224 79.9243 246.617 79.4177 247.821 78.4044C249.657 76.884 250.607 73.8442 250.607 69.6011C250.607 61.3683 246.49 55.8583 240.474 55.8583ZM241.614 82.964C230.848 82.964 226.985 75.0477 226.985 67.638C226.985 62.445 229.074 58.4548 233.254 55.6047C236.231 53.7684 239.778 52.7551 242.944 52.7551C251.177 52.7551 256.94 58.645 256.94 67.1314C256.94 72.8944 254.66 77.454 250.29 80.2407C248.2 81.6338 244.591 82.964 241.614 82.964ZM128.758 55.8583C127.428 55.8583 126.225 56.1747 125.338 56.8081C122.868 58.328 121.601 61.3683 121.601 65.8011C121.601 74.0978 125.781 79.9243 131.734 79.9243C133.508 79.9243 134.901 79.4177 136.104 78.4044C137.941 76.884 138.891 73.8442 138.891 69.6011C138.891 61.3683 134.837 55.8583 128.758 55.8583ZM129.898 82.964C119.132 82.964 115.268 75.0477 115.268 67.638C115.268 62.445 117.358 58.4548 121.538 55.6047C124.515 53.7684 128.061 52.7551 131.228 52.7551C139.461 52.7551 145.224 58.645 145.224 67.1314C145.224 72.8944 142.944 77.454 138.574 80.2407C136.548 81.6338 132.938 82.964 129.898 82.964ZM57.5104 82.3306C57.3836 82.141 57.2568 81.571 57.3202 80.8741C57.3202 80.3675 57.447 80.0505 57.5104 79.9243C58.8401 79.7341 59.5369 79.5439 60.2966 79.3543C61.5634 79.0373 62.07 78.341 62.1334 76.7578C62.3236 72.9578 62.3236 65.7377 62.2602 60.7349V60.6081C62.2602 60.0381 62.2602 59.3412 61.5634 58.8346C60.5502 58.2018 59.3467 57.6318 57.7635 57.1879C57.1934 56.9983 56.8136 56.6813 56.877 56.3015C56.877 55.9217 57.2568 55.4785 58.0805 55.3517C60.1704 55.1615 65.6164 53.8318 67.7697 52.8819C67.8965 53.0082 68.0867 53.3886 68.0867 53.8952L68.0233 54.5914C67.9599 55.2883 67.8965 56.1119 67.8965 56.9349C67.8965 57.1879 68.1501 57.3781 68.4031 57.3781C68.5299 57.3781 68.6567 57.3147 68.7835 57.2513C72.8365 54.0848 76.5096 52.9448 78.4093 52.9448C81.513 52.9448 83.9194 54.4018 85.7562 57.4415C85.8824 57.6318 86.0092 57.6946 86.1994 57.6946C86.3262 57.6946 86.5159 57.6318 86.5793 57.5049C90.3158 54.6548 94.0524 52.9448 96.5221 52.9448C102.412 52.9448 105.895 57.3147 105.895 64.7245C105.895 66.8143 105.895 69.5377 105.832 72.008C105.832 74.2241 105.769 76.2511 105.769 77.7076C105.769 78.024 106.212 79.0373 106.909 79.2275C107.795 79.6707 108.999 79.8609 110.582 80.1139H110.645C110.772 80.5571 110.518 82.2038 110.265 82.5208C109.885 82.5208 109.315 82.5208 108.682 82.4574C107.479 82.394 105.769 82.3306 103.869 82.3306C99.9422 82.3306 97.9157 82.394 95.9521 82.5208C95.8259 82.0142 95.7625 80.4943 95.9521 80.1139C97.0921 79.9243 97.6621 79.7341 98.359 79.5439C99.6258 79.1641 99.9422 78.594 100.006 76.9474C100.006 75.7445 100.259 65.4847 99.8788 63.0144C99.499 60.4813 97.5987 57.5049 93.419 57.5049C91.8357 57.5049 89.366 58.1384 86.9591 59.9747C86.8329 60.1015 86.7061 60.4179 86.7061 60.6081V60.6715C86.9591 62.0011 86.9591 63.5216 86.9591 65.8645V69.9809C86.9591 72.831 86.8957 75.4909 86.9591 77.5174C86.9591 78.911 87.7827 79.2275 88.4795 79.4811C88.8594 79.5439 89.1124 79.6073 89.4294 79.6707C89.9994 79.7975 90.5694 79.9243 91.4559 80.1139C91.5827 80.3675 91.5827 81.1905 91.3925 81.8874C91.3291 82.2672 91.2023 82.4574 91.1395 82.5208C88.9862 82.4574 86.7695 82.394 83.5395 82.394C82.5897 82.394 80.943 82.4574 79.5494 82.4574C78.4093 82.4574 77.3327 82.5208 76.6998 82.5208C76.6364 82.394 76.5096 81.9508 76.5096 81.2539C76.5096 80.6839 76.6364 80.2407 76.7632 80.1139C77.0797 80.0505 77.3327 79.9877 77.6497 79.9877C78.4093 79.8609 79.0427 79.7341 79.6762 79.6073C80.7528 79.2909 81.1326 78.7208 81.196 77.3278C81.3862 74.1612 81.5759 65.1049 81.1326 62.8248C80.373 59.1516 78.2831 57.3147 74.9264 57.3147C72.9633 57.3147 70.493 58.2646 68.4665 59.785C68.1501 60.0381 67.8965 60.6715 67.8965 61.2415V64.9781C67.8965 69.5377 67.8965 75.2379 67.9599 77.7076C68.0233 78.4672 68.2763 79.3543 69.7334 79.6707C70.0498 79.7341 70.5564 79.8609 71.1898 79.9243L72.3299 80.1139C72.4567 80.4943 72.3933 82.0142 72.1397 82.5208C71.5062 82.5208 70.7466 82.4574 69.8596 82.4574C68.5299 82.394 66.8198 82.3306 64.9202 82.3306C62.7035 82.3306 61.1202 82.394 59.8533 82.4574C58.9669 82.3306 58.2701 82.3306 57.5104 82.3306Z" fill="url(#paint1_linear_142_18)"/>
<path fill-rule="evenodd" clip-rule="evenodd" d="M186.833 79.7341C185.25 79.5439 184.11 79.2909 182.716 78.6574C182.526 78.5306 182.209 77.8978 182.209 77.6442C182.082 75.4275 182.082 69.0944 182.082 64.8513C182.082 61.4311 181.513 58.4548 180.056 56.3649C178.346 53.958 175.876 52.5649 172.71 52.5649C169.923 52.5649 166.186 54.4652 163.083 57.1251C163.02 57.1879 162.513 57.6318 162.577 56.9349C162.577 56.2381 162.703 54.845 162.767 53.8952C162.83 53.0082 162.324 52.5649 162.324 52.5649C160.297 53.5782 154.597 54.9084 152.507 55.098C150.987 55.4151 150.607 56.8715 152.191 57.3781H152.254C153.963 57.8848 155.104 58.4548 155.99 59.0248C156.623 59.5314 156.56 60.2283 156.56 60.7983C156.623 65.5481 156.623 72.831 156.434 76.8212C156.37 78.4044 155.927 78.9739 154.787 79.2275L154.913 79.1641C154.027 79.3543 153.33 79.5439 152.253 79.6707C151.874 80.0505 151.874 82.0776 152.253 82.5208C152.95 82.5208 156.623 82.3306 159.664 82.3306C163.844 82.3306 165.997 82.5208 167.073 82.5208C167.517 82.0142 167.643 80.1139 167.39 79.6707C166.186 79.6073 165.3 79.4811 164.477 79.2275C163.337 78.9739 163.02 78.4044 162.956 77.0742C162.83 73.7174 162.83 66.6247 162.83 61.8115C162.83 60.4813 163.21 59.8478 163.59 59.468C165.046 58.2018 167.39 57.3147 169.48 57.3147C171.506 57.3147 172.836 57.9482 173.85 58.7718C175.243 59.9113 175.686 61.5579 175.876 62.7614C176.193 65.4847 176.066 70.8679 176.066 75.5543C176.066 78.0874 175.876 78.7208 174.926 79.0373C174.483 79.2275 173.343 79.4811 172.013 79.6073C171.57 80.0505 171.696 82.0142 172.013 82.4574C173.85 82.4574 176.003 82.2672 179.17 82.2672C183.096 82.2672 185.629 82.4574 186.643 82.4574C186.959 82.0776 187.086 80.2407 186.833 79.7341ZM204.376 55.5419C201.019 55.5419 198.929 58.1384 198.929 62.1913C198.929 66.3077 200.765 71.0575 205.959 71.0575C206.845 71.0575 208.492 70.6777 209.252 69.7913C210.455 68.6512 211.279 66.3711 211.279 63.9648C211.279 58.7084 208.682 55.5419 204.376 55.5419ZM203.932 83.534C202.666 83.534 201.779 83.9139 201.209 84.2309C198.549 85.9403 197.346 87.587 197.346 89.5507C197.346 91.387 198.042 92.8434 199.562 94.1103C201.399 95.6935 203.932 96.4538 207.162 96.4538C213.622 96.4538 216.472 92.9702 216.472 89.5507C216.472 87.1438 215.268 85.5605 212.799 84.6741C211.025 83.9139 207.795 83.534 203.932 83.534ZM204.376 100C200.512 100 197.726 99.1765 195.319 97.3402C192.976 95.5667 191.962 92.9068 191.962 91.0706C191.962 90.5639 192.089 89.1703 193.229 87.904C193.926 87.1438 195.445 85.6873 199.056 83.2176C199.182 83.1542 199.245 83.0908 199.245 82.964C199.245 82.8372 199.119 82.7104 198.992 82.6476C196.015 81.5076 195.129 79.6707 194.875 78.6574V78.5306C194.813 78.1508 194.686 77.771 195.256 77.3906C195.699 77.0742 196.332 76.6944 197.029 76.2511C198.105 75.6177 199.245 74.9209 199.942 74.3509C200.069 74.2241 200.069 74.0978 200.069 73.971C200.069 73.8442 199.942 73.7174 199.815 73.6546C195.383 72.1976 193.166 68.9042 193.166 63.9648C193.166 60.7349 194.622 57.8214 197.219 55.9851C198.992 54.5914 203.425 52.8819 206.339 52.8819H206.529C209.505 52.9448 211.152 53.5782 213.495 54.4018C214.762 54.845 215.965 55.0346 217.612 55.0346C220.081 55.0346 221.158 54.275 222.045 53.3886C222.108 53.5148 222.235 53.8318 222.298 54.6548C222.362 55.4785 222.108 56.6813 221.475 57.5683C220.968 58.2646 219.828 58.7718 218.688 58.7718H218.371C217.231 58.645 216.725 58.5182 216.725 58.5182L216.472 58.645C216.408 58.7718 216.472 58.898 216.535 59.0882L216.599 59.215C216.725 59.785 216.978 61.4945 216.978 61.9383C216.978 67.1313 214.888 69.4109 212.672 71.1209C210.518 72.7042 208.049 73.7174 205.262 73.971C205.199 73.971 204.946 73.971 204.376 74.0344C204.059 74.0344 203.615 74.0978 203.552 74.0978H203.489C202.982 74.2241 201.716 74.8575 201.716 75.9341C201.716 76.884 202.286 78.024 205.008 78.2142C205.578 78.2776 206.148 78.2776 206.782 78.341C210.392 78.594 214.888 78.911 216.978 79.6073C219.891 80.6839 221.728 83.2804 221.728 86.3842C221.728 91.0706 218.371 95.4405 212.799 98.1633C210.075 99.3667 207.352 100 204.376 100ZM240.474 55.8583C239.144 55.8583 237.941 56.1747 237.054 56.8081C234.585 58.328 233.318 61.3683 233.318 65.8011C233.318 74.0978 237.497 79.9243 243.451 79.9243C245.224 79.9243 246.617 79.4177 247.821 78.4044C249.657 76.884 250.607 73.8442 250.607 69.6011C250.607 61.3683 246.49 55.8583 240.474 55.8583ZM241.614 82.964C230.848 82.964 226.985 75.0477 226.985 67.638C226.985 62.445 229.074 58.4548 233.254 55.6047C236.231 53.7684 239.778 52.7551 242.944 52.7551C251.177 52.7551 256.94 58.645 256.94 67.1314C256.94 72.8944 254.66 77.454 250.29 80.2407C248.2 81.6338 244.591 82.964 241.614 82.964ZM128.758 55.8583C127.428 55.8583 126.225 56.1747 125.338 56.8081C122.868 58.328 121.601 61.3683 121.601 65.8011C121.601 74.0978 125.781 79.9243 131.734 79.9243C133.508 79.9243 134.901 79.4177 136.104 78.4044C137.941 76.884 138.891 73.8442 138.891 69.6011C138.891 61.3683 134.837 55.8583 128.758 55.8583ZM129.898 82.964C119.132 82.964 115.268 75.0477 115.268 67.638C115.268 62.445 117.358 58.4548 121.538 55.6047C124.515 53.7684 128.061 52.7551 131.228 52.7551C139.461 52.7551 145.224 58.645 145.224 67.1314C145.224 72.8944 142.944 77.454 138.574 80.2407C136.548 81.6338 132.938 82.964 129.898 82.964ZM57.5104 82.3306C57.3836 82.141 57.2568 81.571 57.3202 80.8741C57.3202 80.3675 57.447 80.0505 57.5104 79.9243C58.8401 79.7341 59.5369 79.5439 60.2966 79.3543C61.5634 79.0373 62.07 78.341 62.1334 76.7578C62.3236 72.9578 62.3236 65.7377 62.2602 60.7349V60.6081C62.2602 60.0381 62.2602 59.3412 61.5634 58.8346C60.5502 58.2018 59.3467 57.6318 57.7635 57.1879C57.1934 56.9983 56.8136 56.6813 56.877 56.3015C56.877 55.9217 57.2568 55.4785 58.0805 55.3517C60.1704 55.1615 65.6164 53.8318 67.7697 52.8819C67.8965 53.0082 68.0867 53.3886 68.0867 53.8952L68.0233 54.5914C67.9599 55.2883 67.8965 56.1119 67.8965 56.9349C67.8965 57.1879 68.1501 57.3781 68.4031 57.3781C68.5299 57.3781 68.6567 57.3147 68.7835 57.2513C72.8365 54.0848 76.5096 52.9448 78.4093 52.9448C81.513 52.9448 83.9194 54.4018 85.7562 57.4415C85.8824 57.6318 86.0092 57.6946 86.1994 57.6946C86.3262 57.6946 86.5159 57.6318 86.5793 57.5049C90.3158 54.6548 94.0524 52.9448 96.5221 52.9448C102.412 52.9448 105.895 57.3147 105.895 64.7245C105.895 66.8143 105.895 69.5377 105.832 72.008C105.832 74.2241 105.769 76.2511 105.769 77.7076C105.769 78.024 106.212 79.0373 106.909 79.2275C107.795 79.6707 108.999 79.8609 110.582 80.1139H110.645C110.772 80.5571 110.518 82.2038 110.265 82.5208C109.885 82.5208 109.315 82.5208 108.682 82.4574C107.479 82.394 105.769 82.3306 103.869 82.3306C99.9422 82.3306 97.9157 82.394 95.9521 82.5208C95.8259 82.0142 95.7625 80.4943 95.9521 80.1139C97.0921 79.9243 97.6621 79.7341 98.359 79.5439C99.6258 79.1641 99.9422 78.594 100.006 76.9474C100.006 75.7445 100.259 65.4847 99.8788 63.0144C99.499 60.4813 97.5987 57.5049 93.419 57.5049C91.8357 57.5049 89.366 58.1384 86.9591 59.9747C86.8329 60.1015 86.7061 60.4179 86.7061 60.6081V60.6715C86.9591 62.0011 86.9591 63.5216 86.9591 65.8645V69.9809C86.9591 72.831 86.8957 75.4909 86.9591 77.5174C86.9591 78.911 87.7827 79.2275 88.4795 79.4811C88.8594 79.5439 89.1124 79.6073 89.4294 79.6707C89.9994 79.7975 90.5694 79.9243 91.4559 80.1139C91.5827 80.3675 91.5827 81.1905 91.3925 81.8874C91.3291 82.2672 91.2023 82.4574 91.1395 82.5208C88.9862 82.4574 86.7695 82.394 83.5395 82.394C82.5897 82.394 80.943 82.4574 79.5494 82.4574C78.4093 82.4574 77.3327 82.5208 76.6998 82.5208C76.6364 82.394 76.5096 81.9508 76.5096 81.2539C76.5096 80.6839 76.6364 80.2407 76.7632 80.1139C77.0797 80.0505 77.3327 79.9877 77.6497 79.9877C78.4093 79.8609 79.0427 79.7341 79.6762 79.6073C80.7528 79.2909 81.1326 78.7208 81.196 77.3278C81.3862 74.1612 81.5759 65.1049 81.1326 62.8248C80.373 59.1516 78.2831 57.3147 74.9264 57.3147C72.9633 57.3147 70.493 58.2646 68.4665 59.785C68.1501 60.0381 67.8965 60.6715 67.8965 61.2415V64.9781C67.8965 69.5377 67.8965 75.2379 67.9599 77.7076C68.0233 78.4672 68.2763 79.3543 69.7334 79.6707C70.0498 79.7341 70.5564 79.8609 71.1898 79.9243L72.3299 80.1139C72.4567 80.4943 72.3933 82.0142 72.1397 82.5208C71.5062 82.5208 70.7466 82.4574 69.8596 82.4574C68.5299 82.394 66.8198 82.3306 64.9202 82.3306C62.7035 82.3306 61.1202 82.394 59.8533 82.4574C58.9669 82.3306 58.2701 82.3306 57.5104 82.3306Z" fill="black" fill-opacity="0.2"/>
<path fill-rule="evenodd" clip-rule="evenodd" d="M24.1981 97.5302L21.6016 96.6432C21.6016 96.6432 21.9186 83.407 17.1688 82.4572C14.0023 78.784 17.6754 -73.3375 29.0747 81.9506C29.0747 81.9506 25.1486 83.9137 24.4517 87.2704C23.6915 90.5637 24.1981 97.5302 24.1981 97.5302Z" fill="white"/>
<path fill-rule="evenodd" clip-rule="evenodd" d="M24.1981 97.5302L21.6016 96.6432C21.6016 96.6432 21.9186 83.407 17.1688 82.4572C14.0023 78.784 17.6754 -73.3375 29.0747 81.9506C29.0747 81.9506 25.1486 83.9137 24.4517 87.2704C23.6915 90.5637 24.1981 97.5302 24.1981 97.5302Z" fill="url(#paint2_linear_142_18)"/>
<path fill-rule="evenodd" clip-rule="evenodd" d="M24.1981 97.5302L21.6016 96.6432C21.6016 96.6432 21.9186 83.407 17.1688 82.4572C14.0023 78.784 17.6754 -73.3375 29.0747 81.9506C29.0747 81.9506 25.1486 83.9137 24.4517 87.2704C23.6915 90.5637 24.1981 97.5302 24.1981 97.5302Z" fill="#C766E9" fill-opacity="0.5"/>
<path fill-rule="evenodd" clip-rule="evenodd" d="M25.5912 84.7374C25.5912 84.7374 48.327 69.7912 43.0072 38.6953C37.8776 16.0863 25.7809 8.67662 24.4512 5.8265C22.9947 3.80001 21.6011 0.253662 21.6011 0.253662L22.5515 63.1411C22.5515 63.2045 20.5878 82.3939 25.5912 84.7374Z" fill="white"/>
<path fill-rule="evenodd" clip-rule="evenodd" d="M25.5912 84.7374C25.5912 84.7374 48.327 69.7912 43.0072 38.6953C37.8776 16.0863 25.7809 8.67662 24.4512 5.8265C22.9947 3.80001 21.6011 0.253662 21.6011 0.253662L22.5515 63.1411C22.5515 63.2045 20.5878 82.3939 25.5912 84.7374Z" fill="url(#paint3_linear_142_18)"/>
<path fill-rule="evenodd" clip-rule="evenodd" d="M25.5912 84.7374C25.5912 84.7374 48.327 69.7912 43.0072 38.6953C37.8776 16.0863 25.7809 8.67662 24.4512 5.8265C22.9947 3.80001 21.6011 0.253662 21.6011 0.253662L22.5515 63.1411C22.5515 63.2045 20.5878 82.3939 25.5912 84.7374Z" fill="black" fill-opacity="0.2"/>
<path fill-rule="evenodd" clip-rule="evenodd" d="M20.2717 85.5604C20.2717 85.5604 -1.071 70.994 0.195848 45.3453C1.3987 19.696 16.4717 7.0933 19.3847 4.8132C21.2849 2.78672 21.3483 2.02649 21.4751 0C22.8048 2.85012 22.5518 42.622 22.7414 47.3084C23.3114 65.3577 21.7282 82.1408 20.2717 85.5604Z" fill="white"/>
<path fill-rule="evenodd" clip-rule="evenodd" d="M20.2717 85.5604C20.2717 85.5604 -1.071 70.994 0.195848 45.3453C1.3987 19.696 16.4717 7.0933 19.3847 4.8132C21.2849 2.78672 21.3483 2.02649 21.4751 0C22.8048 2.85012 22.5518 42.622 22.7414 47.3084C23.3114 65.3577 21.7282 82.1408 20.2717 85.5604Z" fill="url(#paint4_linear_142_18)"/>
<path fill-rule="evenodd" clip-rule="evenodd" d="M20.2717 85.5604C20.2717 85.5604 -1.071 70.994 0.195848 45.3453C1.3987 19.696 16.4717 7.0933 19.3847 4.8132C21.2849 2.78672 21.3483 2.02649 21.4751 0C22.8048 2.85012 22.5518 42.622 22.7414 47.3084C23.3114 65.3577 21.7282 82.1408 20.2717 85.5604Z" fill="black" fill-opacity="0.2"/>
<defs>
<linearGradient id="paint0_linear_142_18" x1="351.114" y1="60.1329" x2="262.224" y2="60.1329" gradientUnits="userSpaceOnUse">
<stop stop-color="#9C2FE4"/>
<stop offset="1" stop-color="#F07B2C"/>
</linearGradient>
<linearGradient id="paint1_linear_142_18" x1="256.94" y1="76.2825" x2="56.8701" y2="76.2825" gradientUnits="userSpaceOnUse">
<stop stop-color="#9C2FE4"/>
<stop offset="1" stop-color="#F07B2C"/>
</linearGradient>
<linearGradient id="paint2_linear_142_18" x1="22.5774" y1="12.2439" x2="22.5774" y2="97.5302" gradientUnits="userSpaceOnUse">
<stop stop-color="#09D6E7"/>
<stop offset="1" stop-color="#3E008E"/>
</linearGradient>
<linearGradient id="paint3_linear_142_18" x1="43.8138" y1="42.4955" x2="21.6011" y2="42.4955" gradientUnits="userSpaceOnUse">
<stop stop-color="#9C2FE4"/>
<stop offset="1" stop-color="#F07B2C"/>
</linearGradient>
<linearGradient id="paint4_linear_142_18" x1="22.8605" y1="42.7802" x2="0.141601" y2="42.7802" gradientUnits="userSpaceOnUse">
<stop stop-color="#9C2FE4"/>
<stop offset="1" stop-color="#F07B2C"/>
</linearGradient>
</defs>
</svg>
