<svg width="90" height="100" viewBox="0 0 90 100" fill="none" xmlns="http://www.w3.org/2000/svg">
<path d="M44.7685 100C43.3905 100 42.1043 99.6325 40.91 98.9894L28.6913 91.7317C26.8539 90.7212 27.7726 90.3537 28.3238 90.17C30.8043 89.3431 31.2637 89.1594 33.836 87.6895C34.1116 87.5057 34.4791 87.5976 34.7547 87.7813L44.1254 93.3854C44.4929 93.5691 44.9522 93.5691 45.2278 93.3854L81.8838 72.1635C82.2513 71.9798 82.435 71.6123 82.435 71.153V28.8011C82.435 28.3418 82.2513 27.9743 81.8838 27.7905L45.2278 6.66054C44.8604 6.4768 44.401 6.4768 44.1254 6.66054L7.46946 27.7905C7.10198 27.9743 6.91825 28.4336 6.91825 28.8011V71.153C6.91825 71.5204 7.10198 71.9798 7.46946 72.1635L17.4832 77.9513C22.9035 80.7074 26.3027 77.492 26.3027 74.2765V32.4759C26.3027 31.9247 26.7621 31.3735 27.4052 31.3735H32.0905C32.6417 31.3735 33.1929 31.8328 33.1929 32.4759V74.2765C33.1929 81.5342 29.2425 85.7602 22.3523 85.7602C20.2393 85.7602 18.5857 85.7602 13.9003 83.4635L4.25403 77.9513C1.86542 76.5733 0.395508 74.0009 0.395508 71.2448V28.893C0.395508 26.1369 1.86542 23.5645 4.25403 22.1865L40.91 0.96463C43.2067 -0.321543 46.3303 -0.321543 48.627 0.96463L85.283 22.1865C87.6716 23.5645 89.1415 26.1369 89.1415 28.893V71.2448C89.1415 74.0009 87.6716 76.5733 85.283 77.9513L48.627 99.1732C47.4327 99.7244 46.0547 100 44.7685 100ZM56.0684 70.8774C39.9913 70.8774 36.684 63.5278 36.684 57.2807C36.684 56.7294 37.1433 56.1782 37.7864 56.1782H42.5636C43.1148 56.1782 43.5742 56.5457 43.5742 57.0969C44.3091 61.966 46.4221 64.3546 56.1603 64.3546C63.8774 64.3546 67.1847 62.6091 67.1847 58.475C67.1847 56.0864 66.266 54.3408 54.2311 53.1465C44.2173 52.136 37.9702 49.9311 37.9702 41.9384C37.9702 34.497 44.2173 30.0873 54.6904 30.0873C66.4497 30.0873 72.2375 34.1295 72.9724 42.949C72.9724 43.2246 72.8806 43.5002 72.6968 43.7758C72.5131 43.9596 72.2375 44.1433 71.9619 44.1433H67.1847C66.7253 44.1433 66.266 43.7758 66.1741 43.3165C65.0717 38.2637 62.2237 36.61 54.6904 36.61C46.2384 36.61 45.2278 39.5498 45.2278 41.7547C45.2278 44.4189 46.4221 45.2458 57.814 46.7157C69.1139 48.1856 74.4424 50.2986 74.4424 58.1994C74.3505 66.2839 67.7359 70.8774 56.0684 70.8774Z" fill="url(#paint0_linear_142_16)"/>
<path d="M44.7685 100C43.3905 100 42.1043 99.6325 40.91 98.9894L28.6913 91.7317C26.8539 90.7212 27.7726 90.3537 28.3238 90.17C30.8043 89.3431 31.2637 89.1594 33.836 87.6895C34.1116 87.5057 34.4791 87.5976 34.7547 87.7813L44.1254 93.3854C44.4929 93.5691 44.9522 93.5691 45.2278 93.3854L81.8838 72.1635C82.2513 71.9798 82.435 71.6123 82.435 71.153V28.8011C82.435 28.3418 82.2513 27.9743 81.8838 27.7905L45.2278 6.66054C44.8604 6.4768 44.401 6.4768 44.1254 6.66054L7.46946 27.7905C7.10198 27.9743 6.91825 28.4336 6.91825 28.8011V71.153C6.91825 71.5204 7.10198 71.9798 7.46946 72.1635L17.4832 77.9513C22.9035 80.7074 26.3027 77.492 26.3027 74.2765V32.4759C26.3027 31.9247 26.7621 31.3735 27.4052 31.3735H32.0905C32.6417 31.3735 33.1929 31.8328 33.1929 32.4759V74.2765C33.1929 81.5342 29.2425 85.7602 22.3523 85.7602C20.2393 85.7602 18.5857 85.7602 13.9003 83.4635L4.25403 77.9513C1.86542 76.5733 0.395508 74.0009 0.395508 71.2448V28.893C0.395508 26.1369 1.86542 23.5645 4.25403 22.1865L40.91 0.96463C43.2067 -0.321543 46.3303 -0.321543 48.627 0.96463L85.283 22.1865C87.6716 23.5645 89.1415 26.1369 89.1415 28.893V71.2448C89.1415 74.0009 87.6716 76.5733 85.283 77.9513L48.627 99.1732C47.4327 99.7244 46.0547 100 44.7685 100ZM56.0684 70.8774C39.9913 70.8774 36.684 63.5278 36.684 57.2807C36.684 56.7294 37.1433 56.1782 37.7864 56.1782H42.5636C43.1148 56.1782 43.5742 56.5457 43.5742 57.0969C44.3091 61.966 46.4221 64.3546 56.1603 64.3546C63.8774 64.3546 67.1847 62.6091 67.1847 58.475C67.1847 56.0864 66.266 54.3408 54.2311 53.1465C44.2173 52.136 37.9702 49.9311 37.9702 41.9384C37.9702 34.497 44.2173 30.0873 54.6904 30.0873C66.4497 30.0873 72.2375 34.1295 72.9724 42.949C72.9724 43.2246 72.8806 43.5002 72.6968 43.7758C72.5131 43.9596 72.2375 44.1433 71.9619 44.1433H67.1847C66.7253 44.1433 66.266 43.7758 66.1741 43.3165C65.0717 38.2637 62.2237 36.61 54.6904 36.61C46.2384 36.61 45.2278 39.5498 45.2278 41.7547C45.2278 44.4189 46.4221 45.2458 57.814 46.7157C69.1139 48.1856 74.4424 50.2986 74.4424 58.1994C74.3505 66.2839 67.7359 70.8774 56.0684 70.8774Z" fill="black" fill-opacity="0.2"/>
<defs>
<linearGradient id="paint0_linear_142_16" x1="89.1415" y1="50" x2="0.395507" y2="50" gradientUnits="userSpaceOnUse">
<stop stop-color="#9C2FE4"/>
<stop offset="1" stop-color="#F07B2C"/>
</linearGradient>
</defs>
</svg>
