<svg width="101" height="100" viewBox="0 0 101 100" fill="none" xmlns="http://www.w3.org/2000/svg">
<path d="M74.2659 72.7969C74.9026 67.4961 74.7112 66.7227 78.6565 67.5781L79.6604 67.668C82.6956 67.8047 86.6643 67.1797 89.0354 66.0977C94.0549 63.7695 97.0315 59.8789 92.0823 60.9023C80.7932 63.2305 79.9729 59.4063 79.9729 59.4063C91.8987 41.7109 96.887 19.25 92.5784 13.7539C80.844 -1.24609 60.5276 5.84766 60.1878 6.03516L60.0784 6.05469C57.8518 5.58594 55.3909 5.3125 52.5393 5.27344C47.4299 5.19532 43.5549 6.61328 40.6096 8.84375C40.6096 8.84375 4.37135 -6.08593 6.05494 27.6211C6.41432 34.793 16.3284 81.918 28.1643 67.6602C32.4964 62.4492 36.676 58.0469 36.676 58.0469C38.7464 59.4258 41.2346 60.1289 43.8401 59.875L44.0432 59.7031C43.9831 60.3783 44.0107 61.0585 44.1253 61.7266C41.0784 65.1328 41.9768 65.7305 35.8831 66.9844C29.719 68.2539 33.344 70.5156 35.7034 71.1094C38.5706 71.8281 45.2034 72.8438 49.6878 66.5703L49.5081 67.2852C50.7034 68.2422 50.6214 74.1602 50.7971 78.3867C50.9729 82.6133 51.2503 86.5625 52.1135 88.8867C52.9768 91.2109 53.9885 97.207 61.9963 95.5273C68.6878 94.0937 73.8049 92.0273 74.2737 72.832" fill="black"/>
<path d="M74.2659 72.7969C74.9026 67.4961 74.7112 66.7227 78.6565 67.5781L79.6604 67.668C82.6956 67.8047 86.6643 67.1797 89.0354 66.0977C94.0549 63.7695 97.0315 59.8789 92.0823 60.9023C80.7932 63.2305 79.9729 59.4063 79.9729 59.4063C91.8987 41.7109 96.887 19.25 92.5784 13.7539C80.844 -1.24609 60.5276 5.84766 60.1878 6.03516L60.0784 6.05469C57.8518 5.58594 55.3909 5.3125 52.5393 5.27344C47.4299 5.19532 43.5549 6.61328 40.6096 8.84375C40.6096 8.84375 4.37135 -6.08593 6.05494 27.6211C6.41432 34.793 16.3284 81.918 28.1643 67.6602C32.4964 62.4492 36.676 58.0469 36.676 58.0469C38.7464 59.4258 41.2346 60.1289 43.8401 59.875L44.0432 59.7031C43.9831 60.3783 44.0107 61.0585 44.1253 61.7266C41.0784 65.1328 41.9768 65.7305 35.8831 66.9844C29.719 68.2539 33.344 70.5156 35.7034 71.1094C38.5706 71.8281 45.2034 72.8438 49.6878 66.5703L49.5081 67.2852C50.7034 68.2422 50.6214 74.1602 50.7971 78.3867C50.9729 82.6133 51.2503 86.5625 52.1135 88.8867C52.9768 91.2109 53.9885 97.207 61.9963 95.5273C68.6878 94.0937 73.8049 92.0273 74.2737 72.832" stroke="black" stroke-width="5.3725"/>
<path d="M92.0474 60.9375C80.7583 63.2656 79.938 59.4414 79.938 59.4414C91.8638 41.7461 96.8521 19.2851 92.5474 13.789C80.813 -1.21097 60.4966 5.88669 60.1568 6.07028L60.0474 6.08982C57.5659 5.59191 55.043 5.32903 52.5122 5.30466C47.4029 5.22653 43.5279 6.6445 40.5825 8.87497C40.5825 8.87497 4.34036 -6.05471 6.02786 27.6523C6.38723 34.8242 16.3013 81.9492 28.1372 67.6914C32.4966 62.4492 36.6763 58.0468 36.6763 58.0468C38.7466 59.4258 41.2349 60.1289 43.8404 59.875L44.0435 59.7031C43.9838 60.3783 44.0114 61.0584 44.1255 61.7265C41.0786 65.1328 41.9771 65.7304 35.8833 66.9843C29.7193 68.2539 33.3443 70.5156 35.7036 71.1093C38.5708 71.8281 45.2036 72.8437 49.688 66.5703L49.5083 67.2851C50.7036 68.2422 51.5396 73.5078 51.3989 78.2812C51.2583 83.0547 51.1646 86.3281 52.1021 88.8906C53.0396 91.4531 53.9771 97.2109 61.9849 95.5312C68.6763 94.0976 72.1411 90.375 72.6294 84.1797C72.9732 79.7734 73.7466 80.4218 73.8013 76.4843L74.4263 74.6172C75.1411 68.6406 74.5435 66.7148 78.6646 67.6133L79.6685 67.7031C82.7036 67.8398 86.6763 67.2148 89.0044 66.1328C94.024 63.8047 96.9966 59.914 92.0474 60.9375Z" fill="url(#paint0_linear_142_29)"/>
<path d="M92.0474 60.9375C80.7583 63.2656 79.938 59.4414 79.938 59.4414C91.8638 41.7461 96.8521 19.2851 92.5474 13.789C80.813 -1.21097 60.4966 5.88669 60.1568 6.07028L60.0474 6.08982C57.5659 5.59191 55.043 5.32903 52.5122 5.30466C47.4029 5.22653 43.5279 6.6445 40.5825 8.87497C40.5825 8.87497 4.34036 -6.05471 6.02786 27.6523C6.38723 34.8242 16.3013 81.9492 28.1372 67.6914C32.4966 62.4492 36.6763 58.0468 36.6763 58.0468C38.7466 59.4258 41.2349 60.1289 43.8404 59.875L44.0435 59.7031C43.9838 60.3783 44.0114 61.0584 44.1255 61.7265C41.0786 65.1328 41.9771 65.7304 35.8833 66.9843C29.7193 68.2539 33.3443 70.5156 35.7036 71.1093C38.5708 71.8281 45.2036 72.8437 49.688 66.5703L49.5083 67.2851C50.7036 68.2422 51.5396 73.5078 51.3989 78.2812C51.2583 83.0547 51.1646 86.3281 52.1021 88.8906C53.0396 91.4531 53.9771 97.2109 61.9849 95.5312C68.6763 94.0976 72.1411 90.375 72.6294 84.1797C72.9732 79.7734 73.7466 80.4218 73.8013 76.4843L74.4263 74.6172C75.1411 68.6406 74.5435 66.7148 78.6646 67.6133L79.6685 67.7031C82.7036 67.8398 86.6763 67.2148 89.0044 66.1328C94.024 63.8047 96.9966 59.914 92.0474 60.9375Z" fill="black" fill-opacity="0.2"/>
<path d="M50.1684 64.3243C49.8559 75.4414 50.2466 86.6368 51.3325 89.3243C52.4184 92.0118 54.7505 97.3321 62.7622 95.6211C69.4536 94.1875 71.8911 91.4102 72.9458 85.2813L75.4184 65.6836M40.5669 8.59379C40.5669 8.59379 4.30126 -6.23433 5.98876 27.4727C6.34813 34.6446 16.2622 81.7696 28.0981 67.5118C32.4184 62.3047 36.3247 58.2305 36.3247 58.2305M60.1528 5.88676C58.9028 6.27738 80.3247 -1.94527 92.5044 13.6133C96.8013 19.1094 91.8208 41.5704 79.895 59.2657" stroke="white" stroke-width="1.79" stroke-linecap="round" stroke-linejoin="round"/>
<path d="M79.8989 59.2579C79.8989 59.2579 80.6802 63.0861 92.0083 60.7501C96.9575 59.7267 93.9771 63.6173 88.9614 65.9454C84.8442 67.8595 75.6099 68.3478 75.4575 65.7111C75.0669 58.8947 80.3169 60.965 79.938 59.2579C79.5942 57.7189 77.2427 56.2111 75.6958 52.4454C74.3403 49.1642 57.1021 23.9689 80.4771 27.7072C81.3364 27.5314 74.3833 5.44153 52.5083 5.12121C30.6333 4.8009 31.3247 32.0157 31.3247 32.0157" stroke="white" stroke-width="1.79" stroke-linecap="round" stroke-linejoin="bevel"/>
<path d="M44.0472 61.594C41.0003 65.0002 41.8988 65.5979 35.805 66.8518C29.641 68.1213 33.266 70.383 35.6253 70.9768C38.4925 71.6955 45.1253 72.7111 49.6097 66.4338C50.9769 64.5197 49.6019 61.4729 47.7269 60.6994C46.8207 60.3244 45.6097 59.8557 44.055 61.5979L44.0472 61.594Z" stroke="white" stroke-width="1.79" stroke-linejoin="round"/>
<path d="M43.848 61.5353C43.5355 59.5314 44.5042 57.1525 45.5394 54.3634C47.094 50.1837 50.68 46.0041 47.8128 32.7345C45.6761 22.8517 31.3284 30.6759 31.3284 32.0158C31.3284 33.3556 31.9769 38.8126 31.0941 45.1603C29.9339 53.4494 36.3675 60.4572 43.7737 59.7423" stroke="white" stroke-width="1.79" stroke-linecap="round" stroke-linejoin="round"/>
<path d="M40.4341 31.8166C40.3677 32.2736 41.2739 33.4963 42.4497 33.6603C43.6255 33.8244 44.6294 32.8713 44.6958 32.4103C44.7622 31.9494 43.856 31.4494 42.6802 31.2853C41.5044 31.1213 40.4927 31.3634 40.4341 31.8166Z" fill="white" stroke="white" stroke-width="0.5975"/>
<path d="M76.2307 30.883C76.2932 31.34 75.3909 32.5627 74.2151 32.7267C73.0393 32.8908 72.0276 31.9377 71.969 31.4767C71.9104 31.0158 72.8089 30.5158 73.9846 30.3517C75.1604 30.1877 76.1721 30.4298 76.2307 30.883Z" fill="white" stroke="white" stroke-width="0.2975"/>
<path d="M80.4341 27.7148C80.6294 31.3086 79.6606 33.75 79.5356 37.5742C79.356 43.1289 82.1841 49.4883 77.9224 55.8555" stroke="white" stroke-width="1.79" stroke-linecap="round" stroke-linejoin="round"/>
<defs>
<linearGradient id="paint0_linear_142_29" x1="94.5894" y1="50.0333" x2="5.9707" y2="50.0333" gradientUnits="userSpaceOnUse">
<stop stop-color="#9C2FE4"/>
<stop offset="1" stop-color="#F07B2C"/>
</linearGradient>
</defs>
</svg>
