<svg width="113" height="100" viewBox="0 0 113 100" fill="none" xmlns="http://www.w3.org/2000/svg">
<path d="M92.4116 32.4119C91.2456 32.0105 90.0375 31.6308 88.7935 31.2717C88.9979 30.4373 89.1856 29.6136 89.3524 28.8039C92.0913 15.5092 90.3005 4.79887 84.1856 1.27257C78.3222 -2.10869 68.733 1.41681 59.0484 9.84504C58.1171 10.6555 57.1832 11.5136 56.2497 12.4128C55.6277 11.8179 55.0067 11.2429 54.3873 10.6929C44.2376 1.6809 34.064 -2.11689 27.9551 1.41961C22.0973 4.81067 20.3625 14.8794 22.8279 27.4789C23.066 28.6959 23.3443 29.9387 23.659 31.2023C22.2191 31.611 20.8291 32.0468 19.4991 32.5103C7.59957 36.659 0 43.161 0 49.9053C0 56.8709 8.15814 63.8575 20.5524 68.0938C21.5305 68.4281 22.5454 68.7442 23.5913 69.0443C23.2518 70.4109 22.9566 71.7501 22.7087 73.0563C20.3579 85.4372 22.1937 95.2681 28.0359 98.6377C34.0704 102.118 44.198 98.5407 54.0596 89.9204C54.8391 89.239 55.6213 88.5164 56.405 87.7589C57.4207 88.737 58.4348 89.6627 59.4435 90.531C68.9957 98.7509 78.43 102.07 84.2669 98.6911C90.2953 95.2012 92.2545 84.6405 89.7109 71.7917C89.5167 70.8104 89.2906 69.8079 89.0367 68.7876C89.748 68.5773 90.4462 68.3603 91.127 68.1346C104.012 63.8655 112.395 56.9639 112.395 49.9053C112.395 43.1366 104.551 36.5908 92.4116 32.4119ZM89.6169 63.577C89.0023 63.7804 88.3717 63.9771 87.7291 64.1678C86.3067 59.6646 84.3869 54.8761 82.0376 49.9287C84.2795 45.0992 86.125 40.3719 87.5077 35.898C88.6574 36.2307 89.7734 36.5816 90.8487 36.9519C101.25 40.5324 107.594 45.8262 107.594 49.9053C107.594 54.2503 100.742 59.8906 89.6169 63.577ZM85.0007 72.7242C86.1254 78.4058 86.2861 83.5426 85.541 87.5583C84.8716 91.1666 83.5254 93.5723 81.8609 94.5358C78.3188 96.5861 70.744 93.921 62.5749 86.8912C61.6384 86.0854 60.6951 85.2249 59.7488 84.3142C62.9158 80.8506 66.081 76.8239 69.1702 72.3519C74.6036 71.8698 79.737 71.0815 84.3923 70.0054C84.6216 70.9303 84.8252 71.8374 85.0007 72.7242ZM38.3181 94.1815C34.8575 95.4037 32.1012 95.4387 30.4351 94.478C26.8898 92.4332 25.4159 84.5399 27.4263 73.9518C27.6566 72.7392 27.9307 71.4936 28.2466 70.2204C32.8508 71.2386 37.9466 71.9712 43.3931 72.4127C46.5031 76.7887 49.7597 80.8109 53.0415 84.3328C52.3245 85.0251 51.6103 85.6841 50.9001 86.3051C46.5393 90.1168 42.1693 92.8213 38.3181 94.1815ZM22.1053 63.5504C16.6248 61.6772 12.0988 59.2426 8.9964 56.586C6.20873 54.1987 4.8013 51.8285 4.8013 49.9053C4.8013 45.8126 10.903 40.5924 21.0796 37.0443C22.3144 36.6138 23.607 36.2081 24.9484 35.8269C26.3548 40.402 28.1998 45.1852 30.4263 50.0222C28.171 54.9309 26.2998 59.7904 24.8796 64.419C23.9233 64.1442 22.9968 63.8549 22.1053 63.5504ZM27.54 26.5568C25.4277 15.7619 26.8306 7.61854 30.3607 5.57511C34.1208 3.39823 42.4356 6.502 51.1992 14.2834C51.7593 14.7808 52.3217 15.3013 52.8857 15.8399C49.6201 19.3464 46.3933 23.3384 43.3109 27.6886C38.0248 28.1786 32.9649 28.9656 28.3126 30.0195C28.0201 28.843 27.761 27.687 27.54 26.5568ZM76.0223 38.5284C74.9101 36.6074 73.7684 34.7318 72.6044 32.9074C76.1905 33.3608 79.6264 33.9626 82.853 34.699C81.8843 37.8035 80.6769 41.0496 79.2557 44.3772C78.2362 42.4416 77.1578 40.49 76.0223 38.5284ZM56.2513 19.2714C58.466 21.6707 60.6839 24.3496 62.8654 27.2561C60.6671 27.1522 58.4416 27.0982 56.1977 27.0982C53.975 27.0982 51.7659 27.151 49.5812 27.2531C51.7649 24.3736 54.002 21.6983 56.2513 19.2714ZM36.3537 38.5616C35.2428 40.488 34.1845 42.429 33.1809 44.3736C31.7827 41.0576 30.5865 37.7967 29.6094 34.6482C32.8162 33.9305 36.2359 33.3438 39.7992 32.899C38.6188 34.7402 37.4677 36.63 36.3537 38.5616ZM39.9018 67.2541C36.2203 66.8434 32.7492 66.2868 29.5432 65.589C30.5359 62.3842 31.7585 59.0538 33.1863 55.6663C34.1925 57.6095 35.255 59.5513 36.3727 61.4819C37.5113 63.4487 38.6911 65.3753 39.9018 67.2541ZM56.3842 80.8778C54.1085 78.4224 51.8386 75.7064 49.6217 72.7848C51.7737 72.8693 53.9678 72.9125 56.1977 72.9125C58.4886 72.9125 60.7533 72.8609 62.9824 72.7616C60.7937 75.7358 58.5839 78.456 56.3842 80.8778ZM79.3015 55.4937C80.8038 58.9177 82.0702 62.2308 83.0757 65.3809C79.8169 66.1244 76.2984 66.7232 72.5912 67.1681C73.758 65.3191 74.9097 63.4113 76.0415 61.4489C77.1864 59.4635 78.2736 57.4751 79.3015 55.4937ZM71.8824 59.0502C70.1254 62.0965 68.3217 65.0046 66.4905 67.7497C63.1553 67.9882 59.7096 68.111 56.1977 68.111C52.7 68.111 49.2978 68.0024 46.0215 67.7897C44.1165 65.0086 42.2736 62.0919 40.5278 59.0764C38.7867 56.069 37.1846 53.0363 35.7325 50.0206C37.1842 46.9978 38.7825 43.9617 40.5136 40.9597L40.5132 40.9603C42.249 37.9504 44.0757 35.0479 45.9631 32.2842C49.3058 32.0315 52.7334 31.8997 56.1975 31.8997C59.6772 31.8997 63.1095 32.0326 66.4511 32.2874C68.3097 35.0309 70.124 37.924 71.8666 40.9343C73.6289 43.9785 75.2478 46.9944 76.7119 49.9523C75.2522 52.9611 73.6369 56.0074 71.8824 59.0502ZM81.7873 5.43226C85.5511 7.60274 87.0147 16.3563 84.65 27.8348C84.4991 28.5673 84.3293 29.3133 84.1448 30.0693C79.4818 28.9934 74.4182 28.1928 69.1167 27.6954C66.0284 23.2974 62.828 19.2992 59.6156 15.8377C60.4792 15.0068 61.3417 14.2146 62.2006 13.467C70.4984 6.24572 78.2538 3.39463 81.7873 5.43226ZM56.1977 39.8688C61.7406 39.8688 66.2342 44.3622 66.2342 49.9053C66.2342 55.4482 61.7406 59.9418 56.1977 59.9418C50.6548 59.9418 46.1612 55.4482 46.1612 49.9053C46.1612 44.3622 50.6548 39.8688 56.1977 39.8688Z" fill="url(#paint0_linear_142_14)"/>
<path d="M92.4116 32.4119C91.2456 32.0105 90.0375 31.6308 88.7935 31.2717C88.9979 30.4373 89.1856 29.6136 89.3524 28.8039C92.0913 15.5092 90.3005 4.79887 84.1856 1.27257C78.3222 -2.10869 68.733 1.41681 59.0484 9.84504C58.1171 10.6555 57.1832 11.5136 56.2497 12.4128C55.6277 11.8179 55.0067 11.2429 54.3873 10.6929C44.2376 1.6809 34.064 -2.11689 27.9551 1.41961C22.0973 4.81067 20.3625 14.8794 22.8279 27.4789C23.066 28.6959 23.3443 29.9387 23.659 31.2023C22.2191 31.611 20.8291 32.0468 19.4991 32.5103C7.59957 36.659 0 43.161 0 49.9053C0 56.8709 8.15814 63.8575 20.5524 68.0938C21.5305 68.4281 22.5454 68.7442 23.5913 69.0443C23.2518 70.4109 22.9566 71.7501 22.7087 73.0563C20.3579 85.4372 22.1937 95.2681 28.0359 98.6377C34.0704 102.118 44.198 98.5407 54.0596 89.9204C54.8391 89.239 55.6213 88.5164 56.405 87.7589C57.4207 88.737 58.4348 89.6627 59.4435 90.531C68.9957 98.7509 78.43 102.07 84.2669 98.6911C90.2953 95.2012 92.2545 84.6405 89.7109 71.7917C89.5167 70.8104 89.2906 69.8079 89.0367 68.7876C89.748 68.5773 90.4462 68.3603 91.127 68.1346C104.012 63.8655 112.395 56.9639 112.395 49.9053C112.395 43.1366 104.551 36.5908 92.4116 32.4119ZM89.6169 63.577C89.0023 63.7804 88.3717 63.9771 87.7291 64.1678C86.3067 59.6646 84.3869 54.8761 82.0376 49.9287C84.2795 45.0992 86.125 40.3719 87.5077 35.898C88.6574 36.2307 89.7734 36.5816 90.8487 36.9519C101.25 40.5324 107.594 45.8262 107.594 49.9053C107.594 54.2503 100.742 59.8906 89.6169 63.577ZM85.0007 72.7242C86.1254 78.4058 86.2861 83.5426 85.541 87.5583C84.8716 91.1666 83.5254 93.5723 81.8609 94.5358C78.3188 96.5861 70.744 93.921 62.5749 86.8912C61.6384 86.0854 60.6951 85.2249 59.7488 84.3142C62.9158 80.8506 66.081 76.8239 69.1702 72.3519C74.6036 71.8698 79.737 71.0815 84.3923 70.0054C84.6216 70.9303 84.8252 71.8374 85.0007 72.7242ZM38.3181 94.1815C34.8575 95.4037 32.1012 95.4387 30.4351 94.478C26.8898 92.4332 25.4159 84.5399 27.4263 73.9518C27.6566 72.7392 27.9307 71.4936 28.2466 70.2204C32.8508 71.2386 37.9466 71.9712 43.3931 72.4127C46.5031 76.7887 49.7597 80.8109 53.0415 84.3328C52.3245 85.0251 51.6103 85.6841 50.9001 86.3051C46.5393 90.1168 42.1693 92.8213 38.3181 94.1815ZM22.1053 63.5504C16.6248 61.6772 12.0988 59.2426 8.9964 56.586C6.20873 54.1987 4.8013 51.8285 4.8013 49.9053C4.8013 45.8126 10.903 40.5924 21.0796 37.0443C22.3144 36.6138 23.607 36.2081 24.9484 35.8269C26.3548 40.402 28.1998 45.1852 30.4263 50.0222C28.171 54.9309 26.2998 59.7904 24.8796 64.419C23.9233 64.1442 22.9968 63.8549 22.1053 63.5504ZM27.54 26.5568C25.4277 15.7619 26.8306 7.61854 30.3607 5.57511C34.1208 3.39823 42.4356 6.502 51.1992 14.2834C51.7593 14.7808 52.3217 15.3013 52.8857 15.8399C49.6201 19.3464 46.3933 23.3384 43.3109 27.6886C38.0248 28.1786 32.9649 28.9656 28.3126 30.0195C28.0201 28.843 27.761 27.687 27.54 26.5568ZM76.0223 38.5284C74.9101 36.6074 73.7684 34.7318 72.6044 32.9074C76.1905 33.3608 79.6264 33.9626 82.853 34.699C81.8843 37.8035 80.6769 41.0496 79.2557 44.3772C78.2362 42.4416 77.1578 40.49 76.0223 38.5284ZM56.2513 19.2714C58.466 21.6707 60.6839 24.3496 62.8654 27.2561C60.6671 27.1522 58.4416 27.0982 56.1977 27.0982C53.975 27.0982 51.7659 27.151 49.5812 27.2531C51.7649 24.3736 54.002 21.6983 56.2513 19.2714ZM36.3537 38.5616C35.2428 40.488 34.1845 42.429 33.1809 44.3736C31.7827 41.0576 30.5865 37.7967 29.6094 34.6482C32.8162 33.9305 36.2359 33.3438 39.7992 32.899C38.6188 34.7402 37.4677 36.63 36.3537 38.5616ZM39.9018 67.2541C36.2203 66.8434 32.7492 66.2868 29.5432 65.589C30.5359 62.3842 31.7585 59.0538 33.1863 55.6663C34.1925 57.6095 35.255 59.5513 36.3727 61.4819C37.5113 63.4487 38.6911 65.3753 39.9018 67.2541ZM56.3842 80.8778C54.1085 78.4224 51.8386 75.7064 49.6217 72.7848C51.7737 72.8693 53.9678 72.9125 56.1977 72.9125C58.4886 72.9125 60.7533 72.8609 62.9824 72.7616C60.7937 75.7358 58.5839 78.456 56.3842 80.8778ZM79.3015 55.4937C80.8038 58.9177 82.0702 62.2308 83.0757 65.3809C79.8169 66.1244 76.2984 66.7232 72.5912 67.1681C73.758 65.3191 74.9097 63.4113 76.0415 61.4489C77.1864 59.4635 78.2736 57.4751 79.3015 55.4937ZM71.8824 59.0502C70.1254 62.0965 68.3217 65.0046 66.4905 67.7497C63.1553 67.9882 59.7096 68.111 56.1977 68.111C52.7 68.111 49.2978 68.0024 46.0215 67.7897C44.1165 65.0086 42.2736 62.0919 40.5278 59.0764C38.7867 56.069 37.1846 53.0363 35.7325 50.0206C37.1842 46.9978 38.7825 43.9617 40.5136 40.9597L40.5132 40.9603C42.249 37.9504 44.0757 35.0479 45.9631 32.2842C49.3058 32.0315 52.7334 31.8997 56.1975 31.8997C59.6772 31.8997 63.1095 32.0326 66.4511 32.2874C68.3097 35.0309 70.124 37.924 71.8666 40.9343C73.6289 43.9785 75.2478 46.9944 76.7119 49.9523C75.2522 52.9611 73.6369 56.0074 71.8824 59.0502ZM81.7873 5.43226C85.5511 7.60274 87.0147 16.3563 84.65 27.8348C84.4991 28.5673 84.3293 29.3133 84.1448 30.0693C79.4818 28.9934 74.4182 28.1928 69.1167 27.6954C66.0284 23.2974 62.828 19.2992 59.6156 15.8377C60.4792 15.0068 61.3417 14.2146 62.2006 13.467C70.4984 6.24572 78.2538 3.39463 81.7873 5.43226ZM56.1977 39.8688C61.7406 39.8688 66.2342 44.3622 66.2342 49.9053C66.2342 55.4482 61.7406 59.9418 56.1977 59.9418C50.6548 59.9418 46.1612 55.4482 46.1612 49.9053C46.1612 44.3622 50.6548 39.8688 56.1977 39.8688Z" fill="black" fill-opacity="0.2"/>
<defs>
<linearGradient id="paint0_linear_142_14" x1="112.395" y1="50" x2="-8.74629e-07" y2="50" gradientUnits="userSpaceOnUse">
<stop stop-color="#9C2FE4"/>
<stop offset="1" stop-color="#F07B2C"/>
</linearGradient>
</defs>
</svg>
